<svg width="65" height="65" viewBox="0 0 65 65" fill="none" xmlns="http://www.w3.org/2000/svg">
<path d="M10 51.8636L32.5 13L55 51.8636H10ZM32.5 45.7273C33.0795 45.7273 33.5657 45.5309 33.9584 45.1382C34.3498 44.7468 34.5455 44.2614 34.5455 43.6818C34.5455 43.1023 34.3498 42.6168 33.9584 42.2255C33.5657 41.8327 33.0795 41.6364 32.5 41.6364C31.9205 41.6364 31.435 41.8327 31.0436 42.2255C30.6509 42.6168 30.4545 43.1023 30.4545 43.6818C30.4545 44.2614 30.6509 44.7468 31.0436 45.1382C31.435 45.5309 31.9205 45.7273 32.5 45.7273ZM30.4545 39.5909H34.5455V29.3636H30.4545V39.5909Z" fill="black"/>
</svg>
