<svg width="53" height="53" viewBox="0 0 53 53" fill="none" xmlns="http://www.w3.org/2000/svg">
<path d="M25.0576 3.71002C24.4098 3.71002 23.9008 4.20557 23.9008 4.83627V14.9725C23.7388 14.9725 23.5538 14.9725 23.3918 15.0401C21.1707 15.5807 19.7594 17.225 18.7183 19.2297C17.6541 21.1894 16.96 23.6221 16.96 26.235C17.0757 32.9925 16.96 39.8176 16.96 46.5075C16.96 47.7464 18.0011 48.76 19.2736 48.76H33.1552C34.4277 48.76 35.4688 47.7464 35.4688 46.5075C35.5614 39.75 35.4688 32.9925 35.4688 26.235C35.4688 23.6221 34.8673 21.1894 33.803 19.2072C32.7619 17.225 31.3506 15.5807 29.1296 15.0626C28.9445 14.9725 28.6437 14.9725 28.528 14.9725V4.83627C28.528 4.20557 28.019 3.71002 27.3712 3.71002M26.2144 19.1396C26.9548 19.1396 27.672 19.2523 28.019 19.4775C28.181 19.5451 28.9907 20.0632 29.6848 21.302C30.3326 22.5634 30.8416 24.3654 30.8416 26.235V44.255H21.5872V26.235C21.5872 24.3654 22.0962 22.5634 22.744 21.302C23.4381 20.0632 24.2478 19.5451 24.4098 19.4775C24.7337 19.2523 25.4741 19.1396 26.2144 19.1396Z" fill="black"/>
</svg>
