<svg width="23" height="23" viewBox="0 0 23 23" fill="none" xmlns="http://www.w3.org/2000/svg">
<rect x="1" y="1" width="20.6665" height="20.6665" rx="1" stroke="#4D8D6E" stroke-width="2"/>
<path d="M6.16516 14.2424C6.56553 13.7381 7.33122 13.7381 7.73159 14.2424L9.8381 16.896C10.3584 17.5513 9.89165 18.5177 9.05489 18.5177H4.84186C4.0051 18.5177 3.53839 17.5513 4.05865 16.896L6.16516 14.2424Z" fill="#4D8D6E"/>
<path d="M12.7332 11.6542C13.1335 11.1342 13.9177 11.1342 14.318 11.6542L18.3621 16.9077C18.8683 17.5652 18.3995 18.5177 17.5697 18.5177H9.48149C8.65165 18.5177 8.18288 17.5652 8.68908 16.9077L12.7332 11.6542Z" fill="#4D8D6E"/>
<circle cx="7.79166" cy="7.08328" r="1.41666" fill="#4D8D6E"/>
</svg>
