<svg width="44" height="44" viewBox="0 0 44 44" fill="none" xmlns="http://www.w3.org/2000/svg">
<circle cx="22" cy="22" r="21.5" fill="#F56161" stroke="black"/>
<path d="M33.5837 13.4757H29.6674L28.5485 12.3568H22.9538L21.8349 13.4757H17.9186V15.7136H33.5837M19.0375 30.2598C19.0375 30.8533 19.2733 31.4225 19.693 31.8422C20.1127 32.2619 20.6819 32.4977 21.2754 32.4977H30.2269C30.8204 32.4977 31.3896 32.2619 31.8093 31.8422C32.229 31.4225 32.4647 30.8533 32.4647 30.2598V16.8326H19.0375V30.2598Z" fill="#F9FCFA"/>
<g clip-path="url(#clip0_609_2048)">
<path fill-rule="evenodd" clip-rule="evenodd" d="M9.68803 20.0504C9.6034 20.0291 9.51392 20.0392 9.43622 20.079C9.35852 20.1187 9.2979 20.1853 9.26563 20.2664L8.52323 22.1224L6.66643 22.8664C6.61522 22.8869 6.56942 22.919 6.53256 22.96C6.4957 23.0011 6.46877 23.05 6.45385 23.1032C6.43892 23.1563 6.43641 23.2121 6.4465 23.2663C6.45659 23.3206 6.47901 23.3718 6.51203 23.416L7.60883 24.8792L6.85043 27.9128C6.82967 27.9964 6.83956 28.0846 6.87831 28.1615C6.91706 28.2385 6.9821 28.2989 7.06163 28.332L9.36003 29.2904L10.5 31C10.5424 31.0635 10.6038 31.1118 10.6754 31.1381C10.747 31.1645 10.8251 31.1673 10.8984 31.1464L13.6984 30.3464C13.7033 30.3449 13.7081 30.3433 13.7128 30.3416L16.1128 29.5416C16.1719 29.5219 16.2248 29.4872 16.2665 29.4409C16.3081 29.3947 16.337 29.3384 16.3504 29.2776L17.1504 25.6776C17.1654 25.6101 17.1606 25.5397 17.1366 25.4749C17.1126 25.4101 17.0705 25.3535 17.0152 25.312L15.5592 24.22V22.4C15.5591 22.3332 15.5405 22.2677 15.5053 22.2109C15.4701 22.1541 15.4198 22.1082 15.36 22.0784L12.96 20.8784C12.9366 20.8664 12.9119 20.857 12.8864 20.8504L9.68643 20.0504H9.68803ZM15.1456 24.8096L16.22 25.6152L14.1696 27.3232C14.1181 27.3662 14.0796 27.4227 14.0584 27.4864L13.4024 29.452L12.1904 28.6944C12.1503 28.6693 12.1056 28.6524 12.059 28.6446C12.0123 28.6368 11.9645 28.6383 11.9185 28.649C11.8724 28.6596 11.8288 28.6793 11.7903 28.7068C11.7518 28.7343 11.7191 28.7691 11.694 28.8092C11.669 28.8493 11.6521 28.894 11.6443 28.9407C11.6365 28.9873 11.638 29.0351 11.6486 29.0812C11.6593 29.1273 11.6789 29.1708 11.7064 29.2093C11.7339 29.2478 11.7687 29.2805 11.8088 29.3056L12.7224 29.876L10.9544 30.3816L9.89843 28.8C9.8592 28.7412 9.80356 28.6953 9.73843 28.668L7.62403 27.7872L8.28083 25.16H10C10.0473 25.16 10.0941 25.1507 10.1378 25.1326C10.1815 25.1145 10.2212 25.088 10.2546 25.0545C10.288 25.0211 10.3145 24.9814 10.3326 24.9378C10.3507 24.8941 10.36 24.8473 10.36 24.8C10.36 24.7527 10.3507 24.7059 10.3326 24.6622C10.3145 24.6185 10.288 24.5789 10.2546 24.5454C10.2212 24.512 10.1815 24.4855 10.1378 24.4674C10.0941 24.4493 10.0473 24.44 10 24.44H8.18003L7.36963 23.36L8.81123 22.7832L11.0864 23.5416C11.1562 23.5647 11.2314 23.5659 11.302 23.5451C11.3725 23.5242 11.4349 23.4822 11.4808 23.4248L12.8992 21.652L14.84 22.6224V24.156L13.0664 24.8656C13.0178 24.885 12.974 24.9149 12.938 24.953C12.9021 24.9911 12.8749 25.0367 12.8584 25.0864L12.4584 26.2864C12.4432 26.3313 12.437 26.3788 12.4402 26.4262C12.4434 26.4735 12.4559 26.5198 12.477 26.5623C12.4981 26.6048 12.5275 26.6427 12.5633 26.6738C12.5991 26.7049 12.6407 26.7286 12.6858 26.7436C12.7308 26.7586 12.7783 26.7645 12.8257 26.761C12.873 26.7576 12.9192 26.7448 12.9615 26.7234C13.0039 26.702 13.0416 26.6725 13.0725 26.6365C13.1034 26.6005 13.1269 26.5587 13.1416 26.5136L13.488 25.472L15.1448 24.8096H15.1456ZM12.1688 21.4128L11.076 22.7792L9.27603 22.1792L9.81763 20.8256L12.1688 21.4128ZM14.1688 29.4312L15.6928 28.9232L16.22 26.552L14.7088 27.8112L14.1688 29.4312Z" fill="#F9FCFA"/>
</g>
<defs>
<clipPath id="clip0_609_2048">
<rect width="12" height="12" fill="white" transform="translate(6 20)"/>
</clipPath>
</defs>
</svg>
