<svg width="44" height="44" viewBox="0 0 44 44" fill="none" xmlns="http://www.w3.org/2000/svg">
<path d="M6.76923 35.1077L22 8.80005L37.2308 35.1077H6.76923ZM22 30.9539C22.3923 30.9539 22.7214 30.821 22.9872 30.5551C23.2521 30.2902 23.3846 29.9616 23.3846 29.5693C23.3846 29.177 23.2521 28.8484 22.9872 28.5834C22.7214 28.3176 22.3923 28.1847 22 28.1847C21.6077 28.1847 21.2791 28.3176 21.0141 28.5834C20.7483 28.8484 20.6154 29.177 20.6154 29.5693C20.6154 29.9616 20.7483 30.2902 21.0141 30.5551C21.2791 30.821 21.6077 30.9539 22 30.9539ZM20.6154 26.8001H23.3846V19.877H20.6154V26.8001Z" fill="black"/>
</svg>
