<svg width="56" height="56" viewBox="0 0 56 56" fill="none" xmlns="http://www.w3.org/2000/svg">
<path d="M22 50C21.2044 50 20.4413 49.7682 19.8787 49.3556C19.3161 48.9431 19 48.3835 19 47.8V25.8C19 21.4 22 17.55 25 17V7.1C25 6.80826 25.158 6.52847 25.4393 6.32218C25.7206 6.11589 26.1022 6 26.5 6H29.5C29.8978 6 30.2794 6.11589 30.5607 6.32218C30.842 6.52847 31 6.80826 31 7.1V17C34 17.55 37 21.4 37 25.8V47.8C37 48.3835 36.6839 48.9431 36.1213 49.3556C35.5587 49.7682 34.7956 50 34 50H22Z" fill="#364D3D"/>
</svg>
