<svg width="52" height="52" viewBox="0 0 52 52" fill="none" xmlns="http://www.w3.org/2000/svg">
<path d="M19.6733 47.84C18.8688 47.84 18.0973 47.6072 17.5284 47.1927C16.9596 46.7783 16.64 46.2161 16.64 45.63V23.53C16.64 19.11 19.6733 15.2425 22.7066 14.69V4.74501C22.7066 4.45195 22.8664 4.17089 23.1509 3.96366C23.4353 3.75643 23.8211 3.64001 24.2233 3.64001H27.2566C27.6589 3.64001 28.0447 3.75643 28.3291 3.96366C28.6135 4.17089 28.7733 4.45195 28.7733 4.74501V14.69C31.8066 15.2425 34.84 19.11 34.84 23.53V45.63C34.84 46.2161 34.5204 46.7783 33.9515 47.1927C33.3827 47.6072 32.6111 47.84 31.8066 47.84H19.6733Z" fill="black"/>
</svg>
