<svg width="178" height="18" viewBox="0 0 178 18" fill="none" xmlns="http://www.w3.org/2000/svg">
<path d="M1.08 17C1 17 0.96 16.96 0.96 16.88L1.008 0.391999C1.008 0.327999 1.04 0.295999 1.104 0.295999L5.592 0.271999C6.472 0.256 7.272 0.464 7.992 0.896C8.728 1.328 9.312 1.912 9.744 2.648C10.176 3.368 10.392 4.168 10.392 5.048V11.936C10.392 12.864 10.168 13.712 9.72 14.48C9.272 15.232 8.672 15.832 7.92 16.28C7.168 16.728 6.32 16.96 5.376 16.976L1.08 17ZM3.888 14.048H5.376C5.968 14.048 6.464 13.84 6.864 13.424C7.28 13.008 7.488 12.512 7.488 11.936V5.024C7.488 4.512 7.296 4.072 6.912 3.704C6.544 3.32 6.104 3.136 5.592 3.152L3.912 3.176L3.888 14.048ZM12.4003 17C12.3203 17 12.2803 16.96 12.2803 16.88L12.3043 0.391999C12.3043 0.327999 12.3363 0.295999 12.4003 0.295999H15.0883C15.1523 0.295999 15.1843 0.327999 15.1843 0.391999L15.2083 16.88C15.2083 16.96 15.1763 17 15.1123 17H12.4003ZM21.7114 17.24C20.8474 17.24 20.0634 17.024 19.3594 16.592C18.6554 16.16 18.0874 15.584 17.6554 14.864C17.2394 14.128 17.0314 13.312 17.0314 12.416V4.808C17.0314 3.944 17.2394 3.152 17.6554 2.432C18.0874 1.696 18.6554 1.112 19.3594 0.68C20.0794 0.248 20.8634 0.0319996 21.7114 0.0319996C22.5914 0.0319996 23.3834 0.248 24.0874 0.68C24.8074 1.096 25.3754 1.664 25.7914 2.384C26.2074 3.104 26.4154 3.912 26.4154 4.808V5.912C26.4154 5.976 26.3754 6.008 26.2954 6.008H23.6074C23.5434 6.008 23.5114 5.976 23.5114 5.912V5C23.5114 4.392 23.3354 3.888 22.9834 3.488C22.6474 3.088 22.2234 2.888 21.7114 2.888C21.2474 2.888 20.8314 3.08 20.4634 3.464C20.1114 3.848 19.9354 4.296 19.9354 4.808V12.416C19.9354 12.944 20.1114 13.4 20.4634 13.784C20.8154 14.152 21.2314 14.336 21.7114 14.336C22.2234 14.336 22.6474 14.152 22.9834 13.784C23.3354 13.416 23.5114 12.96 23.5114 12.416V11.24H21.8314C21.7514 11.24 21.7114 11.2 21.7114 11.12V8.432C21.7114 8.352 21.7514 8.312 21.8314 8.312H26.3194C26.3834 8.312 26.4154 8.352 26.4154 8.432V12.416C26.4154 13.312 26.1994 14.128 25.7674 14.864C25.3514 15.584 24.7914 16.16 24.0874 16.592C23.3834 17.024 22.5914 17.24 21.7114 17.24ZM28.2441 17C28.1641 17 28.1241 16.96 28.1241 16.88L28.1481 0.391999C28.1481 0.327999 28.1801 0.295999 28.2441 0.295999H30.9321C30.9961 0.295999 31.0281 0.327999 31.0281 0.391999L31.0521 16.88C31.0521 16.96 31.0201 17 30.9561 17H28.2441ZM35.5631 17C35.4991 17 35.4671 16.96 35.4671 16.88V3.2H32.3471C32.2671 3.2 32.2271 3.16 32.2271 3.08L32.2511 0.391999C32.2511 0.327999 32.2831 0.295999 32.3471 0.295999H41.4671C41.5471 0.295999 41.5871 0.327999 41.5871 0.391999V3.08C41.5871 3.16 41.5551 3.2 41.4911 3.2H38.3471L38.3711 16.88C38.3711 16.96 38.3391 17 38.2751 17H35.5631ZM40.8549 16.88L43.8309 0.391999C43.8469 0.327999 43.8869 0.295999 43.9509 0.295999H47.4309C47.4949 0.295999 47.5349 0.327999 47.5509 0.391999L50.4069 16.88C50.4229 16.96 50.3909 17 50.3109 17H47.6469C47.5829 17 47.5429 16.96 47.5269 16.88L47.2629 15.128H43.9989L43.7349 16.88C43.7189 16.96 43.6789 17 43.6149 17H40.9509C40.8869 17 40.8549 16.96 40.8549 16.88ZM44.4789 12.56H46.7829L45.7989 5.816L45.6549 4.928L45.5589 5.816L44.4789 12.56ZM52.0091 17C51.9451 17 51.9131 16.96 51.9131 16.88L51.9371 0.415999C51.9371 0.335999 51.9771 0.295999 52.0571 0.295999H54.7211C54.8011 0.295999 54.8411 0.335999 54.8411 0.415999L54.8171 14.048H59.7611C59.8411 14.048 59.8811 14.088 59.8811 14.168V16.88C59.8811 16.96 59.8411 17 59.7611 17H52.0091Z" fill="#096A2E"/>
<path d="M68.1338 17.24C67.2698 17.24 66.4778 17.024 65.7578 16.592C65.0538 16.144 64.4858 15.56 64.0538 14.84C63.6378 14.104 63.4298 13.296 63.4298 12.416V11.312C63.4298 11.232 63.4698 11.192 63.5498 11.192H66.2378C66.3018 11.192 66.3338 11.232 66.3338 11.312V12.416C66.3338 12.944 66.5098 13.4 66.8618 13.784C67.2138 14.152 67.6378 14.336 68.1338 14.336C68.6298 14.336 69.0538 14.144 69.4058 13.76C69.7578 13.376 69.9338 12.928 69.9338 12.416C69.9338 11.824 69.5498 11.312 68.7818 10.88C68.5258 10.736 68.1258 10.512 67.5818 10.208C67.0378 9.904 66.5258 9.616 66.0458 9.344C65.1658 8.832 64.5098 8.192 64.0778 7.424C63.6618 6.64 63.4538 5.76 63.4538 4.784C63.4538 3.888 63.6698 3.088 64.1018 2.384C64.5338 1.664 65.1018 1.096 65.8058 0.68C66.5258 0.263999 67.3018 0.0559993 68.1338 0.0559993C68.9818 0.0559993 69.7578 0.271999 70.4618 0.704C71.1818 1.12 71.7498 1.688 72.1658 2.408C72.5978 3.112 72.8138 3.904 72.8138 4.784V6.752C72.8138 6.816 72.7818 6.848 72.7178 6.848H70.0298C69.9658 6.848 69.9338 6.816 69.9338 6.752L69.9098 4.784C69.9098 4.224 69.7338 3.768 69.3818 3.416C69.0298 3.064 68.6138 2.888 68.1338 2.888C67.6378 2.888 67.2138 3.08 66.8618 3.464C66.5098 3.832 66.3338 4.272 66.3338 4.784C66.3338 5.312 66.4458 5.752 66.6698 6.104C66.8938 6.456 67.3018 6.792 67.8938 7.112C67.9738 7.16 68.1258 7.248 68.3498 7.376C68.5898 7.488 68.8458 7.624 69.1178 7.784C69.3898 7.928 69.6298 8.056 69.8378 8.168C70.0618 8.28 70.1978 8.352 70.2458 8.384C71.0458 8.832 71.6778 9.384 72.1418 10.04C72.6058 10.68 72.8378 11.472 72.8378 12.416C72.8378 13.328 72.6218 14.152 72.1898 14.888C71.7738 15.608 71.2058 16.184 70.4858 16.616C69.7818 17.032 68.9978 17.24 68.1338 17.24ZM76.7897 17C76.7257 17 76.6937 16.96 76.6937 16.88V3.2H73.5737C73.4937 3.2 73.4537 3.16 73.4537 3.08L73.4777 0.391999C73.4777 0.327999 73.5097 0.295999 73.5737 0.295999H82.6937C82.7737 0.295999 82.8137 0.327999 82.8137 0.391999V3.08C82.8137 3.16 82.7817 3.2 82.7177 3.2H79.5737L79.5977 16.88C79.5977 16.96 79.5657 17 79.5017 17H76.7897ZM84.0951 17C84.0311 17 83.9991 16.96 83.9991 16.88L84.0231 0.391999C84.0231 0.327999 84.0551 0.295999 84.1191 0.295999H91.8231C91.8871 0.295999 91.9191 0.335999 91.9191 0.415999V3.104C91.9191 3.168 91.8871 3.2 91.8231 3.2H86.9031V6.944H91.8231C91.8871 6.944 91.9191 6.976 91.9191 7.04L91.9431 9.752C91.9431 9.816 91.9111 9.848 91.8471 9.848H86.9031V14.048H91.8471C91.9111 14.048 91.9431 14.088 91.9431 14.168V16.904C91.9431 16.968 91.9111 17 91.8471 17H84.0951ZM96.2852 17C96.2212 17 96.1812 16.96 96.1652 16.88L93.3332 0.391999C93.3172 0.327999 93.3412 0.295999 93.4052 0.295999H96.0932C96.1572 0.295999 96.1972 0.327999 96.2132 0.391999L97.7492 11.24L99.3332 0.391999C99.3492 0.327999 99.3972 0.295999 99.4772 0.295999H101.637C101.701 0.295999 101.741 0.327999 101.757 0.391999L103.317 11.24L104.877 0.391999C104.893 0.327999 104.933 0.295999 104.997 0.295999H107.661C107.741 0.295999 107.773 0.327999 107.757 0.391999L104.901 16.88C104.885 16.912 104.861 16.944 104.829 16.976C104.797 16.992 104.781 17 104.781 17H101.877C101.829 17 101.789 16.96 101.757 16.88L100.533 8.264L99.3092 16.88C99.2932 16.96 99.2532 17 99.1892 17H96.2852ZM107.347 16.88L110.323 0.391999C110.339 0.327999 110.379 0.295999 110.443 0.295999H113.923C113.987 0.295999 114.027 0.327999 114.043 0.391999L116.899 16.88C116.915 16.96 116.883 17 116.803 17H114.139C114.075 17 114.035 16.96 114.019 16.88L113.755 15.128H110.491L110.227 16.88C110.211 16.96 110.171 17 110.107 17H107.443C107.379 17 107.347 16.96 107.347 16.88ZM110.971 12.56H113.275L112.291 5.816L112.147 4.928L112.051 5.816L110.971 12.56ZM118.501 17C118.437 17 118.405 16.96 118.405 16.88L118.453 0.391999C118.453 0.327999 118.485 0.295999 118.549 0.295999H123.397C124.261 0.295999 125.053 0.511999 125.773 0.943999C126.509 1.36 127.093 1.928 127.525 2.648C127.957 3.352 128.173 4.152 128.173 5.048C128.173 5.64 128.085 6.176 127.909 6.656C127.733 7.12 127.525 7.52 127.285 7.856C127.045 8.176 126.829 8.416 126.637 8.576C127.501 9.536 127.933 10.664 127.933 11.96L127.957 16.88C127.957 16.96 127.917 17 127.837 17H125.125C125.061 17 125.029 16.976 125.029 16.928V11.96C125.029 11.384 124.821 10.888 124.405 10.472C124.005 10.04 123.509 9.824 122.917 9.824H121.333L121.309 16.88C121.309 16.96 121.277 17 121.213 17H118.501ZM121.333 6.944H123.397C123.893 6.944 124.333 6.76 124.717 6.392C125.101 6.024 125.293 5.576 125.293 5.048C125.293 4.536 125.101 4.096 124.717 3.728C124.349 3.36 123.909 3.176 123.397 3.176H121.333V6.944ZM130.103 17C130.023 17 129.983 16.96 129.983 16.88L130.031 0.391999C130.031 0.327999 130.063 0.295999 130.127 0.295999L134.615 0.271999C135.495 0.256 136.295 0.464 137.015 0.896C137.751 1.328 138.335 1.912 138.767 2.648C139.199 3.368 139.415 4.168 139.415 5.048V11.936C139.415 12.864 139.191 13.712 138.743 14.48C138.295 15.232 137.695 15.832 136.943 16.28C136.191 16.728 135.343 16.96 134.399 16.976L130.103 17ZM132.911 14.048H134.399C134.991 14.048 135.487 13.84 135.887 13.424C136.303 13.008 136.511 12.512 136.511 11.936V5.024C136.511 4.512 136.319 4.072 135.935 3.704C135.567 3.32 135.127 3.136 134.615 3.152L132.935 3.176L132.911 14.048ZM145.384 17.24C144.52 17.24 143.728 17.024 143.008 16.592C142.304 16.144 141.736 15.56 141.304 14.84C140.888 14.104 140.68 13.296 140.68 12.416V11.312C140.68 11.232 140.72 11.192 140.8 11.192H143.488C143.552 11.192 143.584 11.232 143.584 11.312V12.416C143.584 12.944 143.76 13.4 144.112 13.784C144.464 14.152 144.888 14.336 145.384 14.336C145.88 14.336 146.304 14.144 146.656 13.76C147.008 13.376 147.184 12.928 147.184 12.416C147.184 11.824 146.8 11.312 146.032 10.88C145.776 10.736 145.376 10.512 144.832 10.208C144.288 9.904 143.776 9.616 143.296 9.344C142.416 8.832 141.76 8.192 141.328 7.424C140.912 6.64 140.704 5.76 140.704 4.784C140.704 3.888 140.92 3.088 141.352 2.384C141.784 1.664 142.352 1.096 143.056 0.68C143.776 0.263999 144.552 0.0559993 145.384 0.0559993C146.232 0.0559993 147.008 0.271999 147.712 0.704C148.432 1.12 149 1.688 149.416 2.408C149.848 3.112 150.064 3.904 150.064 4.784V6.752C150.064 6.816 150.032 6.848 149.968 6.848H147.28C147.216 6.848 147.184 6.816 147.184 6.752L147.16 4.784C147.16 4.224 146.984 3.768 146.632 3.416C146.28 3.064 145.864 2.888 145.384 2.888C144.888 2.888 144.464 3.08 144.112 3.464C143.76 3.832 143.584 4.272 143.584 4.784C143.584 5.312 143.696 5.752 143.92 6.104C144.144 6.456 144.552 6.792 145.144 7.112C145.224 7.16 145.376 7.248 145.6 7.376C145.84 7.488 146.096 7.624 146.368 7.784C146.64 7.928 146.88 8.056 147.088 8.168C147.312 8.28 147.448 8.352 147.496 8.384C148.296 8.832 148.928 9.384 149.392 10.04C149.856 10.68 150.088 11.472 150.088 12.416C150.088 13.328 149.872 14.152 149.44 14.888C149.024 15.608 148.456 16.184 147.736 16.616C147.032 17.032 146.248 17.24 145.384 17.24ZM151.853 17C151.789 17 151.757 16.96 151.757 16.88L151.781 0.391999C151.781 0.327999 151.821 0.295999 151.901 0.295999H154.565C154.645 0.295999 154.685 0.327999 154.685 0.391999L154.661 6.92H158.261V0.391999C158.261 0.327999 158.293 0.295999 158.357 0.295999H161.021C161.101 0.295999 161.141 0.327999 161.141 0.391999L161.189 16.88C161.189 16.96 161.149 17 161.069 17H158.381C158.301 17 158.261 16.96 158.261 16.88V9.824H154.661V16.88C154.661 16.96 154.629 17 154.565 17H151.853ZM163.268 17C163.188 17 163.148 16.96 163.148 16.88L163.172 0.391999C163.172 0.327999 163.204 0.295999 163.268 0.295999H165.956C166.02 0.295999 166.052 0.327999 166.052 0.391999L166.076 16.88C166.076 16.96 166.044 17 165.98 17H163.268ZM168.307 17C168.227 17 168.187 16.96 168.187 16.88L168.235 0.391999C168.235 0.327999 168.267 0.295999 168.331 0.295999H172.939C174.411 0.295999 175.571 0.743999 176.419 1.64C177.283 2.536 177.715 3.752 177.715 5.288C177.715 6.424 177.491 7.408 177.043 8.24C176.595 9.072 176.011 9.712 175.291 10.16C174.571 10.608 173.787 10.832 172.939 10.832H171.115V16.88C171.115 16.96 171.075 17 170.995 17H168.307ZM171.115 7.928H172.939C173.451 7.928 173.891 7.688 174.259 7.208C174.643 6.712 174.835 6.072 174.835 5.288C174.835 4.664 174.667 4.152 174.331 3.752C173.995 3.352 173.531 3.152 172.939 3.152L171.115 3.176V7.928Z" fill="#8ABE53"/>
</svg>
