<svg width="56" height="56" viewBox="0 0 56 56" fill="none" xmlns="http://www.w3.org/2000/svg">
<path d="M26.8575 6C26.2289 6 25.735 6.484 25.735 7.1V17C25.5779 17 25.3983 17 25.2411 17.066C23.0859 17.594 21.7165 19.2 20.7062 21.158C19.6735 23.072 19 25.448 19 28C19.1123 34.6 19 41.266 19 47.8C19 49.01 20.0103 50 21.245 50H34.7151C35.9498 50 36.9601 49.01 36.9601 47.8C37.0499 41.2 36.9601 34.6 36.9601 28C36.9601 25.448 36.3764 23.072 35.3437 21.136C34.3334 19.2 32.964 17.594 30.8088 17.088C30.6292 17 30.3373 17 30.2251 17V7.1C30.2251 6.484 29.7312 6 29.1026 6M27.98 21.07C28.6984 21.07 29.3944 21.18 29.7312 21.4C29.8883 21.466 30.6741 21.972 31.3476 23.182C31.9762 24.414 32.4701 26.174 32.4701 28V45.6H23.49V28C23.49 26.174 23.9839 24.414 24.6125 23.182C25.286 21.972 26.0718 21.466 26.2289 21.4C26.5432 21.18 27.2616 21.07 27.98 21.07Z" fill="#364D3D"/>
</svg>
